<?xml version="1.0" encoding="utf-8"?>
<!-- Generator: Adobe Illustrator 21.0.2, SVG Export Plug-In . SVG Version: 6.00 Build 0)  -->
<svg version="1.1"
	 id="Calque_1" xmlns:cc="http://creativecommons.org/ns#" xmlns:dc="http://purl.org/dc/elements/1.1/" xmlns:inkscape="http://www.inkscape.org/namespaces/inkscape" xmlns:rdf="http://www.w3.org/1999/02/22-rdf-syntax-ns#" xmlns:sodipodi="http://sodipodi.sourceforge.net/DTD/sodipodi-0.dtd" xmlns:svg="http://www.w3.org/2000/svg"
	 xmlns="http://www.w3.org/2000/svg" xmlns:xlink="http://www.w3.org/1999/xlink" x="0px" y="0px" viewBox="0 0 128 160"
	 style="enable-background:new 0 0 128 160;" xml:space="preserve">
<path d="M59.4,20c-0.1,0-0.3,0-0.4,0c-1.1,0-2.1,0.7-2.6,1.7l-17,35.9c-0.5,1-1,2-1.5,3.1c-1,2.6-1.6,5.3-1.9,8.1l-8.2-3.4
	c-1.2-0.5-2.5-0.8-3.9-0.8c-3.9,0-7.6,2.4-9.1,6.1c-1,2.5-1,5.2,0,7.7s2.9,4.4,5.4,5.4l80,33.4c1.2,0.5,2.5,0.8,3.9,0.8
	c4,0,7.7-2.4,9.2-6.1c1-2.5,1-5.2,0-7.7s-2.9-4.4-5.4-5.4l-22.7-9.5c3.3-3.9,5.7-8.7,6.5-13.9c8.4-2.9,10.8-4.5,10.8-4.5
	c0.5-0.2,1-0.3,1.5-0.3c1.6,0,3.1,1,3.7,2.5c0.4,1,0.4,2.1,0,3.1s-1.2,1.8-2.2,2.2l-13.2,5.5c-1.5,0.6-2.2,2.4-1.6,3.9
	c0.5,1.2,1.6,1.8,2.8,1.8c0.4,0,0.8-0.1,1.2-0.2l13.2-5.5c2.5-1,4.4-3,5.4-5.4c1-2.5,1-5.2,0-7.6c-1.6-3.7-5.2-6.1-9.2-6.1
	c-1.3,0-2.6,0.3-3.9,0.8L92,69c-0.2-2.6-0.8-5.1-1.7-7.6c-0.1-0.3-0.2-0.6-0.3-0.8c-0.2-0.6-0.7-1.7-1.1-2.4L76.7,31.7
	c-0.5-1-1.4-1.7-2.5-1.7c-1.1-0.1-2.2,0.5-2.7,1.4l-2.3,3.7l-7.5-13.6C61.3,20.6,60.4,20.1,59.4,20z M59.2,29.6l7.2,12.9
	c0.5,0.9,1.5,1.5,2.5,1.5c1.1,0,2.1-0.5,2.6-1.4l2.1-3.3l9.8,21.3c0,0,0,0.1,0.1,0.1c0.2,0.4,0.7,1.5,1,2.1v0.1c1,2.6,1.5,5.3,1.5,8
	c0,12.1-9.9,22-22,22s-22-9.9-22-22c0-2.7,0.5-5.4,1.5-8c0.3-0.9,0.7-1.7,1.2-2.5c0-0.1,0.1-0.1,0.1-0.2L59.2,29.6z M68.8,54.7
	L58.7,72.9L54,65.4l-0.8,1.8L53,67.6c-0.1,0.2-0.4,0.9-0.7,1.4c-0.5,1.4-0.8,2.9-0.8,4.5C51.5,80.4,57.1,86,64,86
	s12.5-5.6,12.5-12.5c0-1.6-0.3-3.1-0.9-4.6c-0.2-0.5-0.4-1-0.7-1.4L74.6,67L68.8,54.7z M23.9,70.5c0.5,0,1,0.1,1.5,0.3l10.9,4.6
	c0.6,3.7,1.9,7.2,3.8,10.3l-17.7-7.4c-1-0.4-1.7-1.2-2.2-2.2c-0.4-1-0.4-2.1,0-3.1C20.8,71.5,22.3,70.5,23.9,70.5z M34.7,93
	c-0.4,0-0.8,0.1-1.2,0.2l-13.3,5.5c-5.1,2.1-7.5,8-5.4,13.1c1.5,3.8,5.2,6.2,9.2,6.2c1.3,0,2.6-0.3,3.9-0.8l27-11.3
	c1.5-0.6,2.2-2.4,1.6-3.9s-2.4-2.3-3.9-1.6l-23.2,9.7c0.3-0.8,0.5-1.6,0.5-2.5c0-2.2-1.1-4.1-2.7-5.3l8.6-3.6
	c1.5-0.6,2.2-2.4,1.6-3.9C37,93.7,35.8,93,34.7,93z M80.3,93.7l21.5,9c-2.1,1.1-3.6,3.3-3.6,5.8c0,0.5,0.1,1,0.2,1.4l-28-11.7
	C74,97.4,77.4,95.8,80.3,93.7z"/>
</svg>
