<?xml version="1.0" encoding="utf-8"?>
<!-- Generator: Adobe Illustrator 21.0.2, SVG Export Plug-In . SVG Version: 6.00 Build 0)  -->
<svg version="1.1"
	 id="Calque_1" xmlns:cc="http://creativecommons.org/ns#" xmlns:dc="http://purl.org/dc/elements/1.1/" xmlns:inkscape="http://www.inkscape.org/namespaces/inkscape" xmlns:rdf="http://www.w3.org/1999/02/22-rdf-syntax-ns#" xmlns:sodipodi="http://sodipodi.sourceforge.net/DTD/sodipodi-0.dtd" xmlns:svg="http://www.w3.org/2000/svg"
	 xmlns="http://www.w3.org/2000/svg" xmlns:xlink="http://www.w3.org/1999/xlink" x="0px" y="0px" viewBox="0 0 128 160"
	 style="enable-background:new 0 0 128 160;" xml:space="preserve">
<path d="M64,9c-2.1,0-4,0.1-5.9,0.3c-10.3,0.7-28.5,3-37.8,10.2c-0.7,0.5-1.1,1.3-1.2,2.2s0.3,1.7,0.9,2.3l8,7.8
	c-9.4,20.4-1.9,45.1,17.7,56.5l20,11.7l7.1,17.2c0.5,1.2,1.6,1.9,2.8,1.9c0.5,0,1.1-0.1,1.6-0.4c1.3-0.8,1.7-2.4,1.2-3.8l-6.2-15
	l1.8-4.4c0.7-1.7,2.3-2.8,4.1-2.8c3.4-0.1,5.7,3.6,4,6.6l-2.6,4.9c-0.7,1.4-0.4,3.2,0.9,4c0.5,0.4,1.1,0.5,1.7,0.5
	c1.1,0,2.1-0.6,2.6-1.6l8.5-15.7c0.6-1.1,0.6-2.3,0-3.4c-0.4-0.7-1-1.1-1.6-1.2c-0.4-0.2-0.9-0.3-1.4-0.3l-18.1,0.3
	c-23.8-13.3-18.3-33-18-34c5.6-1.7,17.8-2.4,31.3-1.8c8.8,0.4,19.9-1.4,20.4-1.5c1.6-0.3,2.7-1.8,2.5-3.4c-0.3-1.6-1.8-2.8-3.4-2.5
	c-0.1,0-11,1.8-19.2,1.4c-12.4-0.6-28.2-0.2-35.1,2.6c-10.2,4.1-11.7,16.1-11.8,16.6c-0.2,1.6,1,3.1,2.6,3.3h0.4
	c1.5,0,2.8-1.1,3-2.6c0.2-1.8,2.8-1.8,3.1,0c0.1,0.4,0.1,0.7,0.2,1.1c1.6,7.6,6.7,18.3,21.8,26.5c0.1,0.1,0.3,0.1,0.4,0.2L69.2,95
	L48.7,83.1C30.7,72.7,24.6,49.4,35,31.2c5.6-9.7,12.8-14.6,23.5-15.9c3.3-0.2,5.7-0.3,6.6-0.3c5.7,0.1,11,1.2,15.8,3.3
	C77.6,24.7,76.2,31.8,77,39c0.2,1.5,1.5,2.7,3,2.7h0.4c1.6-0.2,2.8-1.7,2.6-3.4c-0.6-5.9,0.5-11.8,3.2-17.1
	c5.5,3.6,10.4,8.9,14.7,15.8l-2.6,0.3c-1.6,0.1-2.9,1.5-2.8,3.1c0.1,1.7,1.6,3,3.3,2.8l7.2-0.7c0.7-0.1,1.4-0.3,1.9-0.8
	c1-1,1.2-2.4,0.6-3.6C98.4,19.2,84,9.4,65.7,9h-0.1h-0.2h-0.8h-0.1H64z M28.8,21.8c2,0.1,3.5,2.4,2.3,4.5L27,22.4
	c0.1-0.1,0.3-0.1,0.4-0.2C27.9,21.9,28.4,21.8,28.8,21.8z M55.8,22.1c-1.2,0-2.2,0.4-3.2,1.1c-4.3,3.2-4.1,13.3-3.9,17.4
	c0.1,0.8,0.5,1.6,1.1,2.1c0.5,0.4,1.2,0.7,1.9,0.7h0.5c0.1,0,8.7-1.3,13.4-0.9c1.6,0.1,3.1-1.1,3.3-2.7s-1.1-3.1-2.7-3.3
	c-3.4-0.3-8.2,0.1-11.5,0.5c0-4,0.6-7.6,1.4-8.8c6.7,2.4,10.9,7,11,7.1c1.1,1.2,3,1.4,4.2,0.3s1.4-3,0.3-4.2
	c-0.2-0.2-5.2-5.8-13.7-8.9C57.2,22.2,56.5,22.1,55.8,22.1z M89.2,29.7c-1.7,0-3,1.3-3,3c0,1.7,1.3,3,3,3s3-1.3,3-3
	C92.2,31,90.8,29.7,89.2,29.7z"/>
</svg>
