<?xml version="1.0" encoding="utf-8"?>
<!-- Generator: Adobe Illustrator 21.0.2, SVG Export Plug-In . SVG Version: 6.00 Build 0)  -->
<svg version="1.1"
	 id="Calque_1" xmlns:cc="http://creativecommons.org/ns#" xmlns:dc="http://purl.org/dc/elements/1.1/" xmlns:inkscape="http://www.inkscape.org/namespaces/inkscape" xmlns:rdf="http://www.w3.org/1999/02/22-rdf-syntax-ns#" xmlns:sodipodi="http://sodipodi.sourceforge.net/DTD/sodipodi-0.dtd" xmlns:svg="http://www.w3.org/2000/svg"
	 xmlns="http://www.w3.org/2000/svg" xmlns:xlink="http://www.w3.org/1999/xlink" x="0px" y="0px" viewBox="0 0 128 160"
	 style="enable-background:new 0 0 128 160;" xml:space="preserve">
<path d="M98.6,20.6c-1.1,0-2.1,0.1-3.2,0.4c-2.6,0.7-4.9,2.2-6.7,4.2L85,29.3C78.6,25.9,71.4,24,64,24s-14.6,1.9-21.1,5.4l-3.7-4.1
	c-1.8-2-4.1-3.5-6.7-4.2c-4.3-1.1-8.7,0.1-11.9,2.9c-2.7,2.4-4.2,5.7-4.3,9.3c-0.1,3.4,1.3,6.8,3.6,9.3l4.9,5.4
	c-1.1,2.2-2,4.4-2.8,6.8c-0.2,0.5-0.3,1.1-0.5,1.6c0,0.1,0,0.1-0.1,0.2c-0.1,0.5-0.2,1-0.4,1.5c0,0.1-0.1,0.2-0.1,0.3
	c-0.1,0.5-0.2,0.9-0.3,1.4c0,0.1-0.1,0.3-0.1,0.4L20.2,62L15,100.3c-0.2,1.6,0.8,3.2,2.4,3.5c1.7,0.3,3.3-0.8,3.5-2.5l5.2-38.5
	c0.1-0.9,0.3-1.8,0.5-2.7c0-0.2,0.1-0.3,0.1-0.5l0.6-2.4c0.1-0.2,0.1-0.4,0.2-0.6c0.2-0.5,0.3-1.1,0.5-1.6s0.3-0.9,0.5-1.4
	s0.4-1,0.7-1.5l0.6-1.2c0.2-0.3,0.4-0.7,0.5-1s0.3-0.5,0.4-0.8c0-0.1,0.1-0.1,0.1-0.2c1.5-2.5,3.2-4.9,5.3-7.1
	c1.1-1.2,1.2-3,0.1-4.2c-1.2-1.3-3.2-1.3-4.4,0c-1.5,1.6-2.9,3.3-4.1,5L24,38.5c-1.1-1.3-1.9-2.9-2-4.6c-0.1-2.1,0.8-4.1,2.3-5.5
	c1.8-1.7,4.5-2.2,6.9-1.4c1.2,0.4,2.2,1.2,3.1,2.1l5.4,6c1,1.1,2.6,1.3,3.8,0.5C50,32,56.9,30,64,30c0.5,0,1.1,0,1.6,0.1
	c10.2,3,18.5,9.6,24.2,21.6c4.4,9.4,5.8,19.9,4.6,30.2l-2.8,22.8c-0.3,2.1,1.7,3.8,3.8,3.3c5.6-1.5,14.8-4,14.9-4
	c1.2-0.3,2.9-1.2,2.6-3.4l-5.2-38.5l-0.3-1.8c0-0.1,0-0.2-0.1-0.3l-0.3-1.5c0-0.1,0-0.2-0.1-0.3c-0.1-0.5-0.2-1-0.4-1.6v-0.1
	c-0.8-3-1.9-5.8-3.3-8.5l4.9-5.5c2.1-2.3,3.4-5.2,3.5-8.3c0.2-4-1.4-7.7-4.3-10.3C104.9,21.8,101.8,20.6,98.6,20.6z M44,66.1
	c-1.7,0-3,1.3-3,3s1.3,3,3,3h5c1.7,0,3-1.3,3-3s-1.3-3-3-3H44z M79,66.1c-1.7,0-3,1.3-3,3s1.3,3,3,3h5c1.7,0,3-1.3,3-3s-1.3-3-3-3
	H79z M64,66.2c-4.2,0-8.1,2.5-9.8,6.2L42.9,96.3c-1.4,3-1.4,6.5,0.1,9.5l3.8,7.6c3.3,6.5,9.8,10.6,17.2,10.6
	c7.3,0,13.9-4.1,17.2-10.6l3.8-7.6c1.5-3,1.5-6.5,0.1-9.5L73.8,72.4C72,68.6,68.2,66.2,64,66.2z M63.9,72.1c0.3,0,0.7,0,1,0.1
	L69.4,86c1,3.3,1.5,6.6,1.5,10c-5.8-3.9-14.6-2.3-18,4.9l3.7,7.4c1.2,2.5,3.6,4.3,6.4,4.7c1.1,0.1,2.1,0,3.1-0.2
	c-1.1,1.8-2.4,3.5-3.9,5l-0.1,0.1c-4.2-0.6-7.9-3.2-9.8-7.1l-3.8-7.6c-0.8-1.5-0.8-3-0.2-4.4l11.2-23.9C60.3,73.2,62,72.1,63.9,72.1
	z"/>
</svg>
