<?xml version="1.0" encoding="utf-8"?>
<!-- Generator: Adobe Illustrator 21.0.2, SVG Export Plug-In . SVG Version: 6.00 Build 0)  -->
<svg version="1.1"
	 id="Calque_1" xmlns:cc="http://creativecommons.org/ns#" xmlns:dc="http://purl.org/dc/elements/1.1/" xmlns:inkscape="http://www.inkscape.org/namespaces/inkscape" xmlns:rdf="http://www.w3.org/1999/02/22-rdf-syntax-ns#" xmlns:sodipodi="http://sodipodi.sourceforge.net/DTD/sodipodi-0.dtd" xmlns:svg="http://www.w3.org/2000/svg"
	 xmlns="http://www.w3.org/2000/svg" xmlns:xlink="http://www.w3.org/1999/xlink" x="0px" y="0px" viewBox="0 0 128 160"
	 style="enable-background:new 0 0 128 160;" xml:space="preserve">
<path d="M94,13c-8.3,0-15,6.7-15,15c0,3.2,1,6.2,2.9,8.8L91.6,50c0.6,0.8,1.5,1.2,2.4,1.2c1,0,1.8-0.5,2.4-1.2l9.7-13.2
	c1.9-2.6,2.9-5.6,2.9-8.8C109,19.7,102.3,13,94,13z M94,19c5,0,9,4,9,9c0,1.9-0.6,3.7-1.7,5.2L94,43.1l-7.3-9.9
	C85.6,31.7,85,29.9,85,28C85,23,89,19,94,19z M34,53C20.2,53,9,64.2,9,78c0,5.3,1.6,10.4,4.7,14.6c0.1,0.2,0.3,0.3,0.4,0.5
	l17.5,23.7c0.6,0.7,1.4,1.2,2.4,1.2s1.8-0.5,2.4-1.2l17.5-23.7l0.3-0.4l0.1-0.1C57.4,88.3,59,83.3,59,78C59,64.2,47.8,53,34,53z
	 M88.7,53.7c-1,0-1.9,0.4-2.6,1.2l-1.8,2.4c-1,1.3-0.8,3.2,0.6,4.2c0.5,0.4,1.2,0.6,1.8,0.6c0.9,0,1.8-0.4,2.4-1.2l1.8-2.4
	c1-1.3,0.7-3.2-0.6-4.2C89.8,53.9,89.2,53.7,88.7,53.7z M34,59c10.5,0,19,8.5,19,19c0,4-1.2,7.9-3.6,11.1v0.1L34,110L18.9,89.5
	c-0.1-0.1-0.2-0.2-0.3-0.4C16.2,85.9,15,82,15,78C15,67.5,23.5,59,34,59z M79.7,65.7c-1,0-1.9,0.4-2.6,1.2l-1.8,2.4
	c-1,1.3-0.7,3.2,0.6,4.2c0.5,0.4,1.2,0.6,1.8,0.6c0.9,0,1.8-0.4,2.4-1.2l1.8-2.4c1-1.3,0.7-3.2-0.6-4.2
	C80.8,65.9,80.2,65.7,79.7,65.7z M34,68c-5.5,0-10,4.5-10,10s4.5,10,10,10s10-4.5,10-10S39.5,68,34,68z M76.3,77.5
	c-0.8,0-1.5,0.2-2.1,0.8c-1.3,1-1.4,2.9-0.2,4.2l2,2.2c0.6,0.6,1.4,1,2.2,1c0.7,0,1.5-0.3,2-0.8c1.2-1.1,1.3-3,0.2-4.2l-2-2.2
	C77.9,77.9,77.1,77.6,76.3,77.5z M86.4,88.5c-0.8,0-1.5,0.2-2.1,0.8c-1.2,1.1-1.3,3-0.2,4.2l2,2.2c0.6,0.6,1.4,1,2.2,1
	c0.7,0,1.5-0.3,2-0.8c1.2-1.1,1.3-3,0.2-4.2l-2-2.2C87.9,88.9,87.2,88.6,86.4,88.5z M96.6,99.5c-0.8,0-1.5,0.2-2.1,0.8
	c-1.2,1.1-1.3,3-0.2,4.2l2,2.2c0.6,0.6,1.4,1,2.2,1c0.7,0,1.5-0.3,2-0.8c1.2-1.1,1.3-3,0.2-4.2l-2-2.2
	C98.1,99.9,97.4,99.6,96.6,99.5z M106.8,110.5c-0.8,0-1.5,0.2-2.1,0.8c-1,0.9-1.2,2.4-0.6,3.6v0.1c0,1.7,1.3,3,3,3h1
	c1.2,0,2.3-0.7,2.7-1.8c0.5-1.1,0.3-2.4-0.5-3.2l-1.4-1.5C108.4,110.9,107.6,110.6,106.8,110.5z M47,112c-1.7,0-3,1.3-3,3s1.3,3,3,3
	h3c1.7,0,3-1.3,3-3s-1.3-3-3-3H47z M62,112c-1.7,0-3,1.3-3,3s1.3,3,3,3h3c1.7,0,3-1.3,3-3s-1.3-3-3-3H62z M77,112c-1.7,0-3,1.3-3,3
	s1.3,3,3,3h3c1.7,0,3-1.3,3-3s-1.3-3-3-3H77z M92,112c-1.7,0-3,1.3-3,3s1.3,3,3,3h3c1.7,0,3-1.3,3-3s-1.3-3-3-3H92z"/>
</svg>
