<?xml version="1.0" encoding="utf-8"?>
<!-- Generator: Adobe Illustrator 21.0.2, SVG Export Plug-In . SVG Version: 6.00 Build 0)  -->
<svg version="1.1"
	 id="Calque_1" xmlns:cc="http://creativecommons.org/ns#" xmlns:dc="http://purl.org/dc/elements/1.1/" xmlns:inkscape="http://www.inkscape.org/namespaces/inkscape" xmlns:rdf="http://www.w3.org/1999/02/22-rdf-syntax-ns#" xmlns:sodipodi="http://sodipodi.sourceforge.net/DTD/sodipodi-0.dtd" xmlns:svg="http://www.w3.org/2000/svg"
	 xmlns="http://www.w3.org/2000/svg" xmlns:xlink="http://www.w3.org/1999/xlink" x="0px" y="0px" viewBox="0 0 128 160"
	 style="enable-background:new 0 0 128 160;" xml:space="preserve">
<path d="M89,16c-0.5,0-0.9,0.1-1.4,0.3L68.3,26H19c-1.7,0-3,1.3-3,3v80c0,1.7,1.3,3,3,3h50c0.5,0,0.9-0.1,1.3-0.3l18.7-9.3l18.7,9.3
	c0.4,0.2,0.9,0.3,1.3,0.3c0.5,0,1.1-0.2,1.6-0.4c0.9-0.5,1.4-1.5,1.4-2.6V29c0-1.1-0.6-2.2-1.7-2.7l-20-10C89.9,16.1,89.5,16,89,16z
	 M89,22.4l17,8.5v73.3l-15.7-7.8C89.9,96.1,89.5,96,89,96V22.4z M22,32h47v73.6l-0.7,0.4H22V32z M40.9,45c-0.8,0-1.5,0.3-2.1,0.9
	c-1.2,1.2-1.2,3.1,0,4.2l2.8,2.8l-2.8,2.8c-1.2,1.2-1.2,3.1,0,4.2c0.6,0.6,1.4,0.9,2.1,0.9s1.5-0.3,2.1-0.9l2.8-2.8l2.8,2.8
	c0.6,0.6,1.4,0.9,2.1,0.9s1.5-0.3,2.1-0.9c1.2-1.2,1.2-3.1,0-4.2L50,53l2.8-2.8c1.2-1.2,1.2-3.1,0-4.3s-3.1-1.2-4.2,0l-2.8,2.8
	L43,45.9C42.4,45.3,41.6,45,40.9,45z M45.6,65.5c-1,0.1-1.9,0.6-2.4,1.5l-0.5,0.9c-0.8,1.4-0.3,3.3,1.1,4.1c0.5,0.3,1,0.4,1.5,0.4
	c1,0,2-0.6,2.6-1.5l0.5-0.9c0.8-1.4,0.3-3.3-1.1-4.1C46.8,65.6,46.2,65.5,45.6,65.5z M41.8,77.5c-0.2,0-0.4,0-0.6,0
	c-1.6,0.2-2.8,1.7-2.6,3.3c0.1,0.4,0.1,0.8,0.2,1.2c0.3,1.4,1.5,2.4,2.9,2.4c0.2,0,0.4,0,0.6-0.1c1.6-0.3,2.7-1.9,2.3-3.6
	c0-0.1-0.1-0.3-0.1-0.6C44.3,78.7,43.2,77.6,41.8,77.5z M84.2,77.6c0.8,0,1.5,0.4,2.1,1c1.1,1.2,1,3.1-0.2,4.2l-0.7,0.7
	c-0.6,0.5-1.3,0.8-2,0.8c-0.8,0-1.6-0.3-2.2-1c-1.1-1.2-1-3.1,0.2-4.2l0.7-0.7C82.7,77.9,83.5,77.6,84.2,77.6z M92.2,78.2
	c-0.6,0-1.1,0.2-1.6,0.6c-1.3,1-1.5,2.9-0.5,4.2l0.6,0.8c0.5,0.7,1.4,1.1,2.3,1.1c0.7,0,1.3-0.2,1.9-0.6c1.3-1,1.5-2.9,0.5-4.2
	l-0.6-0.8C94.2,78.5,93.2,78.1,92.2,78.2z M74.6,86.3c0.8,0,1.5,0.4,2.1,1c1.1,1.2,1,3.1-0.2,4.2l-0.7,0.7c-0.6,0.5-1.3,0.8-2,0.8
	c-0.8,0-1.6-0.3-2.2-1c-1.1-1.2-1-3.1,0.2-4.2l0.7-0.7C73.1,86.5,73.9,86.3,74.6,86.3z M49,87.2c-1.2,0.1-2.2,0.8-2.6,1.9
	c-0.5,1.6,0.3,3.3,1.8,3.8c0.4,0.1,0.8,0.3,1.2,0.4c0.3,0.1,0.5,0.1,0.8,0.1c1.3,0,2.6-0.9,2.9-2.2c0.4-1.6-0.6-3.3-2.2-3.7
	c-0.2-0.1-0.5-0.1-0.7-0.2C49.8,87.2,49.4,87.1,49,87.2z M61.8,89.1c-1.4,0.1-2.5,1.2-2.8,2.6c-0.2,1.6,1,3.1,2.6,3.4l1,0.1H63
	c1.5,0,2.8-1.1,3-2.6c0.2-1.7-0.9-3.2-2.6-3.4l-1-0.1C62.2,89.1,62,89.1,61.8,89.1z"/>
</svg>
