<?xml version="1.0" encoding="utf-8"?>
<!-- Generator: Adobe Illustrator 21.0.2, SVG Export Plug-In . SVG Version: 6.00 Build 0)  -->
<svg version="1.1"
	 id="Calque_1" xmlns:cc="http://creativecommons.org/ns#" xmlns:dc="http://purl.org/dc/elements/1.1/" xmlns:inkscape="http://www.inkscape.org/namespaces/inkscape" xmlns:rdf="http://www.w3.org/1999/02/22-rdf-syntax-ns#" xmlns:sodipodi="http://sodipodi.sourceforge.net/DTD/sodipodi-0.dtd" xmlns:svg="http://www.w3.org/2000/svg"
	 xmlns="http://www.w3.org/2000/svg" xmlns:xlink="http://www.w3.org/1999/xlink" x="0px" y="0px" viewBox="0 0 128 160"
	 style="enable-background:new 0 0 128 160;" xml:space="preserve">
<path d="M64,7c-1,0-2,0.5-2.5,1.4c-1.6,2.5-9.8,15.3-9.8,21.1C51.7,36.4,57.2,42,64,42s12.3-5.6,12.3-12.5c0-5.8-8.1-18.6-9.8-21.1
	C66,7.5,65,7,64,7z M29.5,19c-1.1,0-2.1,0.6-2.6,1.6s-0.5,2.2,0.1,3.1l19.5,29.2V64H42c-7.2,0-13,5.8-13,13v44c0,1.7,1.3,3,3,3h64
	c1.7,0,3-1.3,3-3V77c0-7.2-5.8-13-13-13h-4.5V52.9L101,23.7c0.6-0.9,0.7-2.1,0.1-3.1S99.6,19,98.5,19h-13c-1.7,0-3,1.3-3,3
	s1.3,3,3,3h7.4l-16,24H67v-2c0-1.7-1.3-3-3-3c-1.7,0-3,1.3-3,3v2h-9.9l-16-24h7.4c1.7,0,3-1.3,3-3s-1.3-3-3-3H29.5z M64,23.8
	c1.9,3.6,3.2,6.6,3.3,7.8c0,1.9-1.5,3.4-3.3,3.4c-1.8,0-3.3-1.6-3.3-3.5C60.8,30.3,62.1,27.3,64,23.8z M52.5,55H64
	c2.5,0,4.5,2,4.5,4.5S66.5,64,64,64H52.5V55z M42,70h7.5h25.4c2.7,0,5.1,1.8,5.8,4.3c0.2,0.8,0.4,1.7,0.4,2.7v35c0,3.3-2.7,6-6,6H35
	V77C35,73.1,38.1,70,42,70z"/>
</svg>
