<?xml version="1.0" encoding="utf-8"?>
<!-- Generator: Adobe Illustrator 21.0.2, SVG Export Plug-In . SVG Version: 6.00 Build 0)  -->
<svg version="1.1"
	 id="Calque_1" xmlns:cc="http://creativecommons.org/ns#" xmlns:dc="http://purl.org/dc/elements/1.1/" xmlns:inkscape="http://www.inkscape.org/namespaces/inkscape" xmlns:rdf="http://www.w3.org/1999/02/22-rdf-syntax-ns#" xmlns:sodipodi="http://sodipodi.sourceforge.net/DTD/sodipodi-0.dtd" xmlns:svg="http://www.w3.org/2000/svg"
	 xmlns="http://www.w3.org/2000/svg" xmlns:xlink="http://www.w3.org/1999/xlink" x="0px" y="0px" viewBox="0 0 128 160"
	 style="enable-background:new 0 0 128 160;" xml:space="preserve">
<path d="M51,15c-1.2,0-2.2,0.6-2.7,1.7L24.1,65H21c-1.1,0-2.2,0.6-2.7,1.7l-15,30c-0.7,1.5-0.1,3.3,1.3,4c1.5,0.7,3.3,0.1,4-1.3
	L22.9,71H26c1.1,0,2.2-0.6,2.7-1.7L39.4,48H51v23l16,10.8l3.6,29.2c0.2,0,21.8-10.3,21.8-10.3c1.5-0.7,2.1-2.5,1.3-4L79.3,68
	l3.7-7.7l7.7,7.7l7.7-7.8l19.8,39.1c0.7,1.5,2.6,2.1,4,1.3c1.5-0.8,2.1-2.6,1.3-4l-30.3-60c-0.5-1-1.5-1.6-2.7-1.6
	c-1.1,0-2.2,0.7-2.7,1.7L76,61.2L53.7,16.7C53.2,15.7,52.2,15,51,15z"/>
</svg>
