<?xml version="1.0" encoding="utf-8"?>
<!-- Generator: Adobe Illustrator 21.0.2, SVG Export Plug-In . SVG Version: 6.00 Build 0)  -->
<svg version="1.1"
	 id="Calque_1" xmlns:cc="http://creativecommons.org/ns#" xmlns:dc="http://purl.org/dc/elements/1.1/" xmlns:inkscape="http://www.inkscape.org/namespaces/inkscape" xmlns:rdf="http://www.w3.org/1999/02/22-rdf-syntax-ns#" xmlns:sodipodi="http://sodipodi.sourceforge.net/DTD/sodipodi-0.dtd" xmlns:svg="http://www.w3.org/2000/svg"
	 xmlns="http://www.w3.org/2000/svg" xmlns:xlink="http://www.w3.org/1999/xlink" x="0px" y="0px" viewBox="0 0 128 160"
	 style="enable-background:new 0 0 128 160;" xml:space="preserve">
<path d="M45.4,22.7c-6-0.1-11.7,2.2-16.1,6.6c-5.8,5.8-8,14.1-5.7,22.2c2.2,8.1,8.3,14.2,16.4,16.4c0.3,0.1,0.5,0.1,0.8,0.1
	c1.3,0,2.5-0.9,2.9-2.2c0.4-1.6-0.5-3.3-2.1-3.7c-6-1.7-10.5-6.2-12.2-12.2c-1.6-5.9-0.1-12.1,4.2-16.3c4.3-4.3,10.4-5.9,16.3-4.2
	c6,1.7,10.6,6.2,12.2,12.2c0.4,1.6,2.1,2.5,3.7,2.1s2.5-2.1,2.1-3.7c-2.2-8-8.4-14.1-16.4-16.4C49.5,23,47.4,22.8,45.4,22.7z
	 M45.1,30.9c-3.8,0-7.4,1.4-10.1,4.1c-3.6,3.6-5,8.8-3.7,13.9c1.4,5.3,5.3,9.4,10.6,10.9c0.3,0.1,0.6,0.1,0.8,0.1
	c1.3,0,2.5-0.9,2.9-2.2c0.5-1.6-0.5-3.3-2.1-3.7c-3.2-0.9-5.6-3.4-6.5-6.7c-0.8-3,0-6,2.1-8.2c2.3-2,5.3-2.8,8.3-2
	c3.2,0.8,5.7,3.3,6.7,6.5c0.5,1.6,2.1,2.5,3.7,2.1c1.6-0.5,2.5-2.1,2.1-3.7c-1.5-5.3-5.6-9.3-10.9-10.6
	C47.7,31.1,46.4,30.9,45.1,30.9z M69.7,43.6c-0.8,0-1.5,0.3-2.1,0.9L38.8,73.3c-1.2,1.2-1.2,3.1,0,4.3c0.6,0.6,1.4,0.9,2.1,0.9
	s1.5-0.3,2.1-0.9l28.8-28.9c1.2-1.2,1.2-3.1,0-4.2C71.2,43.9,70.4,43.6,69.7,43.6z M75.6,49.4c-0.8,0-1.5,0.3-2.1,0.9L50.3,73.5
	c-1.2,1.2-1.2,3.1,0,4.2c0.6,0.6,1.3,0.9,2.1,0.9s1.5-0.3,2.1-0.9l23.2-23.2c1.2-1.2,1.2-3.1,0-4.2C77.1,49.7,76.3,49.4,75.6,49.4z
	 M87,49.5c-0.8,0-1.5,0.3-2.1,0.9L56.1,79.3c-1.2,1.2-1.2,3.1,0,4.2c0.6,0.6,1.4,0.9,2.1,0.9c0.8,0,1.5-0.3,2.1-0.9l28.8-28.9
	c1.2-1.2,1.2-3.1,0-4.2C88.5,49.8,87.7,49.5,87,49.5z M87.4,60c-1.4-0.1-2.7,0.8-3.1,2.2c-0.4,1.6,0.5,3.3,2.1,3.7
	c6,1.7,10.5,6.2,12.2,12.2c1.6,5.9,0.1,12.1-4.2,16.3c-4.3,4.3-10.4,5.9-16.3,4.2c-6-1.7-10.6-6.2-12.2-12.2
	c-0.4-1.6-2.1-2.5-3.7-2.1s-2.5,2.1-2.1,3.7c2.2,8.1,8.3,14.2,16.4,16.4c2.1,0.6,4.2,0.9,6.3,0.9c5.9,0,11.6-2.3,15.9-6.6
	c5.8-5.8,8-14.1,5.7-22.2c-2.2-8-8.3-14.2-16.4-16.4C87.8,60,87.6,60,87.4,60z M85.4,68c-1.4-0.1-2.7,0.8-3.1,2.2
	c-0.5,1.6,0.5,3.3,2.1,3.7c3.2,0.9,5.6,3.4,6.5,6.7c0.8,3,0,6-2.1,8.2c-2.2,2.1-5.2,2.9-8.2,2.1c-3.2-0.8-5.7-3.3-6.7-6.5
	c-0.5-1.6-2.1-2.5-3.7-2.1c-1.6,0.5-2.5,2.1-2.1,3.7c1.5,5.3,5.6,9.3,10.9,10.6c1.3,0.3,2.5,0.5,3.8,0.5c3.8,0,7.4-1.5,10.1-4.2
	c3.6-3.6,5-8.8,3.7-13.9c-1.4-5.3-5.3-9.4-10.6-10.9C85.8,68,85.6,68,85.4,68z"/>
</svg>
