<?xml version="1.0" encoding="utf-8"?>
<!-- Generator: Adobe Illustrator 21.0.2, SVG Export Plug-In . SVG Version: 6.00 Build 0)  -->
<svg version="1.1"
	 id="Calque_1" xmlns:cc="http://creativecommons.org/ns#" xmlns:dc="http://purl.org/dc/elements/1.1/" xmlns:inkscape="http://www.inkscape.org/namespaces/inkscape" xmlns:rdf="http://www.w3.org/1999/02/22-rdf-syntax-ns#" xmlns:sodipodi="http://sodipodi.sourceforge.net/DTD/sodipodi-0.dtd" xmlns:svg="http://www.w3.org/2000/svg"
	 xmlns="http://www.w3.org/2000/svg" xmlns:xlink="http://www.w3.org/1999/xlink" x="0px" y="0px" viewBox="0 0 128 160"
	 style="enable-background:new 0 0 128 160;" xml:space="preserve">
<path d="M42.1,10c-1-0.1-1.9,0.4-2.5,1.1C27,27.3,27,49.7,39.6,65.9c0.6,0.7,1.5,1.1,2.4,1.1c0.3,0,0.6,0,0.9-0.1L64.6,60
	c1.2-0.4,2-1.5,2.1-2.7c0.1-2.9,2.5-5.2,5.4-5.2h5.7v57c0,5,4,9,9,9s9-4,9-9V51.8c1.2-0.4,2-1.5,2-2.8V27c0-1.3-0.8-2.4-2-2.8V19
	c0-1.7-1.3-3-3-3h-12c-1.7,0-3,1.3-3,3v4.4L43.1,10.2C42.8,10.1,42.4,10,42.1,10z M46.1,17.6L75.8,29v9c0,1.7,1.3,3,3,3s3-1.3,3-3
	v-8h10v16H72.1c-5.4,0-9.9,3.7-11.1,8.8l-14.9,4.7C36.9,46.3,36.9,30.8,46.1,17.6z M83.8,22h6v2h-6V22z M83.8,58h6v51
	c0,1.7-1.3,3-3,3s-3-1.3-3-3V58z"/>
</svg>
