<?xml version="1.0" encoding="utf-8"?>
<!-- Generator: Adobe Illustrator 21.0.2, SVG Export Plug-In . SVG Version: 6.00 Build 0)  -->
<svg version="1.1"
	 id="Calque_1" xmlns:cc="http://creativecommons.org/ns#" xmlns:dc="http://purl.org/dc/elements/1.1/" xmlns:inkscape="http://www.inkscape.org/namespaces/inkscape" xmlns:rdf="http://www.w3.org/1999/02/22-rdf-syntax-ns#" xmlns:sodipodi="http://sodipodi.sourceforge.net/DTD/sodipodi-0.dtd" xmlns:svg="http://www.w3.org/2000/svg"
	 xmlns="http://www.w3.org/2000/svg" xmlns:xlink="http://www.w3.org/1999/xlink" x="0px" y="0px" viewBox="0 0 128 160"
	 style="enable-background:new 0 0 128 160;" xml:space="preserve">
<path d="M64,27c-1,0-2,0.5-2.6,1.4l-54,88c-0.8,1.4-0.4,3.3,1,4.2s3.3,0.4,4.1-1l7.3-11.9l7.6,12C28,120.5,29,121,30,121h68
	c1,0,2-0.5,2.5-1.4l7.6-12l7.3,11.9c0.6,0.9,1.6,1.4,2.6,1.4c0.5,0,1.1-0.1,1.6-0.4c1.4-0.9,1.9-2.7,1-4.1l-54-88
	C66,27.5,65,27,64,27z M64,35.7l40.6,66.2L96.3,115H64V35.7z M61.1,39.3l-3.8,43C55.5,96,47.6,108,35.9,115h-4.2l-8.3-13.1
	L61.1,39.3z"/>
</svg>
