<?xml version="1.0" encoding="utf-8"?>
<!-- Generator: Adobe Illustrator 21.0.2, SVG Export Plug-In . SVG Version: 6.00 Build 0)  -->
<svg version="1.1"
	 id="Calque_1" xmlns:cc="http://creativecommons.org/ns#" xmlns:dc="http://purl.org/dc/elements/1.1/" xmlns:inkscape="http://www.inkscape.org/namespaces/inkscape" xmlns:rdf="http://www.w3.org/1999/02/22-rdf-syntax-ns#" xmlns:sodipodi="http://sodipodi.sourceforge.net/DTD/sodipodi-0.dtd" xmlns:svg="http://www.w3.org/2000/svg"
	 xmlns="http://www.w3.org/2000/svg" xmlns:xlink="http://www.w3.org/1999/xlink" x="0px" y="0px" viewBox="0 0 128 160"
	 style="enable-background:new 0 0 128 160;" xml:space="preserve">
<path d="M23.1,27.4c-1.7,0-3,1.3-3,3v9c0,1.7,1.3,3,3,3h26.4c1.7,0,3-1.3,3-3v-9c0-1.7-1.3-3-3-3H23.1z M26.1,33.4h14.3v3H26.1V33.4
	z M51.7,45.1c-0.2,0-0.3,0-0.5,0H22c-1.2,0-2.3,0.6-2.8,1.8l-3.5,7.7H14c-1.7,0-3,1.3-3,3v59.7c0,4,3.4,7.3,7.5,7.3h36.4
	c4.2,0,7.5-3.4,7.5-7.5V57.5c0-1.7-1.3-3-3-3h-1.7l-3.5-7.7C53.8,45.8,52.7,45.2,51.7,45.1z M23.9,51h23.7c0.7,1.6-0.5,3.5-2.2,3.5
	H22.3L23.9,51z M17,60.5h0.6H46c0.9,0,1.6,0.7,1.6,1.6v55c0,0.8-0.8,1.5-1.6,1.5H18.5c-0.9,0-1.5-0.7-1.5-1.5V60.5z M101.4,60.6
	c-1.2-0.1-2.3,0.5-2.8,1.6l-5,10c-0.8,1.5-0.2,3.3,1.3,4.1c0.4,0.2,0.9,0.3,1.3,0.3c1.1,0,2.2-0.6,2.7-1.7l5-10
	c0.7-1.5,0.1-3.3-1.3-4C102.2,60.7,101.8,60.6,101.4,60.6z M89.4,64.6c-1.2,0-2.3,0.6-2.8,1.6l-3,6c-0.7,1.5-0.1,3.3,1.3,4
	c0.4,0.2,0.9,0.3,1.3,0.3c1.1,0,2.2-0.6,2.7-1.7l3-6c0.7-1.5,0.1-3.3-1.3-4C90.2,64.7,89.8,64.6,89.4,64.6z M68.5,82.5
	c-1.6,0-3,1.4-3,3v18c0,11.6,9.5,21.1,21.1,21.1h9.2c11.6,0,21.1-9.5,21.1-21.1v-18c0-1.7-1.3-3-3-3H68.5z M71.5,88.5h30.6v15.1
	c0,6.3-3.3,11.8-8.2,15.1h-7.3c-8.3,0-15.1-6.8-15.1-15.1V88.5z"/>
</svg>
