<?xml version="1.0" encoding="utf-8"?>
<!-- Generator: Adobe Illustrator 21.0.2, SVG Export Plug-In . SVG Version: 6.00 Build 0)  -->
<svg version="1.1"
	 id="Calque_1" xmlns:cc="http://creativecommons.org/ns#" xmlns:dc="http://purl.org/dc/elements/1.1/" xmlns:inkscape="http://www.inkscape.org/namespaces/inkscape" xmlns:rdf="http://www.w3.org/1999/02/22-rdf-syntax-ns#" xmlns:sodipodi="http://sodipodi.sourceforge.net/DTD/sodipodi-0.dtd" xmlns:svg="http://www.w3.org/2000/svg"
	 xmlns="http://www.w3.org/2000/svg" xmlns:xlink="http://www.w3.org/1999/xlink" x="0px" y="0px" viewBox="0 0 128 160"
	 style="enable-background:new 0 0 128 160;" xml:space="preserve">
<path d="M55.5,14c-1.7,0-3,1.3-3,3v1.1c-11.8,2.3-22.7,8-31.4,16.7l-3,3c-1,1-1.2,2.7-0.3,3.9c0.6,0.8,1.5,1.2,2.4,1.2
	c0.5,0,0.9-0.1,1.3-0.3c7.6-3.8,16.1-5.6,24.5-5.1c1.7,0.1,3.1-1.2,3.1-2.8c0.1-1.7-1.2-3.1-2.8-3.1c-4.4-0.2-8.7,0.1-13,0.9
	c5.8-4,12.3-6.7,19.2-8.2V39c0,1.5,1.2,2.8,2.6,3v67c-0.1,5,3.9,9,8.9,9s9-4,9-9V41.9c1.3-0.3,2.4-1.5,2.4-2.9v-0.2
	c10.5-2.3,21.6-1,31.3,3.9c1.3,0.7,2.9,0.3,3.8-0.9s0.7-2.8-0.3-3.9l-3-3c-8.8-8.8-19.8-14.5-31.7-16.8V17c0-1.7-1.3-3-3-3H55.5z
	 M58.4,20h11v16h-11V20z M75.4,24.2c7,1.5,13.7,4.3,19.6,8.4c-6.5-1.2-13.1-1.1-19.6,0.1V24.2z M61,48h6v61c0,1.7-1.3,3-3,3
	c-1.7,0-3-1.3-3-3V48z"/>
</svg>
