<?xml version="1.0" encoding="utf-8"?>
<!-- Generator: Adobe Illustrator 21.0.2, SVG Export Plug-In . SVG Version: 6.00 Build 0)  -->
<svg version="1.1"
	 id="Calque_1" xmlns:cc="http://creativecommons.org/ns#" xmlns:dc="http://purl.org/dc/elements/1.1/" xmlns:inkscape="http://www.inkscape.org/namespaces/inkscape" xmlns:rdf="http://www.w3.org/1999/02/22-rdf-syntax-ns#" xmlns:sodipodi="http://sodipodi.sourceforge.net/DTD/sodipodi-0.dtd" xmlns:svg="http://www.w3.org/2000/svg"
	 xmlns="http://www.w3.org/2000/svg" xmlns:xlink="http://www.w3.org/1999/xlink" x="0px" y="0px" viewBox="0 0 128 160"
	 style="enable-background:new 0 0 128 160;" xml:space="preserve">
<path d="M64,18.9c-5,0-9,4-9,9v6H22c-0.8,0-1.5,0.3-2.1,0.9l-10,9.8C9.3,45.3,9,46.1,9,46.9s0.4,1.6,1,2.2l10,9.2
	c0.5,0.4,1.2,0.7,2,0.7h33v57c0,1.1,0.2,2.1,0.5,3H34c-1.7,0-3,1.3-3,3s1.3,3,3,3h49c0.9,0,1.7-0.4,2.3-1l0.6-0.7
	c0.9-1.1,2.3-1.6,3.7-1.5s2.7,0.8,3.5,2c0.6,0.8,1.5,1.3,2.5,1.3H106c1.7,0,3-1.3,3-3s-1.3-3-3-3h-9.1c-1.8-1.9-4.3-3.1-7-3.3
	c-3.1-0.2-6.1,1-8.2,3.3h-9.2c0.3-0.9,0.5-1.9,0.5-3V53h33c0.8,0,1.5-0.3,2-0.8l10-9.2c0.6-0.6,1-1.3,1-2.2c0-0.8-0.3-1.6-0.9-2.2
	l-10-9.8c-0.6-0.6-1.3-0.9-2.1-0.9H73C73,22.9,69,18.9,64,18.9z M64,25c1.7,0,3,1.3,3,3v88c0,1.7-1.3,3-3,3c-1.7,0-3-1.3-3-3V56
	c0-1.7-1.3-3-3-3H23.2l-6.8-6.2l6.8-6.8H55v2c0,1.7,1.3,3,3,3s3-1.3,3-3V28C61,26.3,62.3,25,64,25z M78.2,34h26.6l6.9,6.8l-6.8,6.2
	h-18L78.2,34z M19,119.1c-0.8,0-1.5,0.3-2.1,0.8c-0.6,0.6-0.9,1.3-0.9,2.1s0.3,1.6,0.9,2.1c0.5,0.6,1.3,0.9,2.1,0.9s1.6-0.3,2.1-0.9
	c0.6-0.6,0.9-1.3,0.9-2.1s-0.3-1.6-0.9-2.1C20.5,119.4,19.8,119.1,19,119.1z"/>
</svg>
