<?xml version="1.0" encoding="utf-8"?>
<!-- Generator: Adobe Illustrator 21.0.2, SVG Export Plug-In . SVG Version: 6.00 Build 0)  -->
<svg version="1.1"
	 id="Calque_1" xmlns:cc="http://creativecommons.org/ns#" xmlns:dc="http://purl.org/dc/elements/1.1/" xmlns:inkscape="http://www.inkscape.org/namespaces/inkscape" xmlns:rdf="http://www.w3.org/1999/02/22-rdf-syntax-ns#" xmlns:sodipodi="http://sodipodi.sourceforge.net/DTD/sodipodi-0.dtd" xmlns:svg="http://www.w3.org/2000/svg"
	 xmlns="http://www.w3.org/2000/svg" xmlns:xlink="http://www.w3.org/1999/xlink" x="0px" y="0px" viewBox="0 0 128 160"
	 style="enable-background:new 0 0 128 160;" xml:space="preserve">
<path d="M64,4.7c-1.7,0-3,1.3-3,3v8c0,1.7,1.3,3,3,3c1.7,0,3-1.3,3-3v-8C67,6,65.7,4.7,64,4.7z M35.9,14.3c-0.6,0-1.2,0.2-1.7,0.5
	c-1.4,0.9-1.7,2.8-0.8,4.2l3.3,4.9c0.6,0.9,1.5,1.3,2.5,1.3c0.6,0,1.2-0.2,1.7-0.5c1.4-0.9,1.7-2.8,0.8-4.2l-3.3-4.9
	C37.8,14.7,36.9,14.3,35.9,14.3z M92.1,14.3c-1,0-1.9,0.4-2.5,1.3l-3.3,4.9c-0.9,1.4-0.5,3.3,0.8,4.2c0.5,0.3,1.1,0.5,1.7,0.5
	c1,0,1.9-0.5,2.5-1.3l3.3-4.9c0.9-1.4,0.6-3.2-0.8-4.2C93.3,14.5,92.7,14.3,92.1,14.3z M63.9,30.7c-7.6,0-15.2,1.9-22.1,5.6H37
	c-1.7,0-3,1.3-3,3v10c0,1.7,1.3,3,3,3c0,8.7,6.2,16,14.5,17.7v47.3c0,1.7,1.3,3,3,3h19c1.7,0,3-1.3,3-3V70C84.8,68.3,91,61,91,52.3
	c1.7,0,3-1.3,3-3v-10c0-1.7-1.3-3-3-3h-4.9C79.2,32.6,71.6,30.7,63.9,30.7z M40,42.3h42v4H40V42.3z M43,52.3h36
	c0,4.9-1.6,9.2-4.7,11.9c-0.4,0-0.9,0.1-1.3,0.1H55C48.4,64.3,43,58.9,43,52.3z M57.5,75.3h13v29h-13V75.3z M64,79.4
	c-0.8,0-1.5,0.3-2.1,0.8c-0.6,0.6-0.9,1.3-0.9,2.1s0.3,1.6,0.9,2.1c0.5,0.6,1.3,0.9,2.1,0.9c0.8,0,1.6-0.3,2.1-0.9
	c0.6-0.6,0.9-1.3,0.9-2.1s-0.3-1.6-0.9-2.1C65.5,79.6,64.8,79.4,64,79.4z M64,89.3c-1.7,0-3,1.3-3,3v5c0,1.7,1.3,3,3,3
	c1.7,0,3-1.3,3-3v-5C67,90.6,65.7,89.3,64,89.3z M57.5,110.3h13v4h-13V110.3z"/>
</svg>
