<?xml version="1.0" encoding="utf-8"?>
<!-- Generator: Adobe Illustrator 21.0.2, SVG Export Plug-In . SVG Version: 6.00 Build 0)  -->
<svg version="1.1"
	 id="Calque_1" xmlns:cc="http://creativecommons.org/ns#" xmlns:dc="http://purl.org/dc/elements/1.1/" xmlns:inkscape="http://www.inkscape.org/namespaces/inkscape" xmlns:rdf="http://www.w3.org/1999/02/22-rdf-syntax-ns#" xmlns:sodipodi="http://sodipodi.sourceforge.net/DTD/sodipodi-0.dtd" xmlns:svg="http://www.w3.org/2000/svg"
	 xmlns="http://www.w3.org/2000/svg" xmlns:xlink="http://www.w3.org/1999/xlink" x="0px" y="0px" viewBox="0 0 128 160"
	 style="enable-background:new 0 0 128 160;" xml:space="preserve">
<path d="M59,7c-6.1,0-11,4.9-11,11v3H29c-1.7,0-3,1.3-3,3v2h-5c-1.7,0-3,1.3-3,3v14c0,1.7,1.3,3,3,3h5v5.4c-5.2,1.3-9,6-9,11.6v12
	c0,5.7,4,10.4,9.3,11.7c0.3,1.6,1,3.1,1.8,4.4c-4,0.5-7.1,3.8-7.1,7.9v10c0,4.4,3.6,8,8,8h12c0,1.7,1.3,3,3,3s3-1.3,3-3h24
	c0,1.7,1.3,3,3,3s3-1.3,3-3h12c4.4,0,8-3.6,8-8V99c0-4.1-3.1-7.5-7.1-7.9c0.9-1.3,1.5-2.8,1.8-4.4c5.3-1.3,9.3-6,9.3-11.7V63
	c0-5.6-3.8-10.3-9-11.6V46h5c1.7,0,3-1.3,3-3V29c0-1.7-1.3-3-3-3h-5v-2c0-1.7-1.3-3-3-3H70v-3C70,11.9,65.1,7,59,7z M59,13
	c2.8,0,5,2.2,5,5v3H54v-3C54,15.2,56.2,13,59,13z M32,27h46c1.7,0,3,1.3,3,3v16.7c-0.6,0.2-1.3,0.3-2,0.3h-2v-2.8
	c0-1.6-1.2-3.1-2.8-3.2c-1.7-0.1-3.2,1.3-3.2,3v3H47v-2.8c0-1.6-1.2-3.1-2.8-3.2c-1.7-0.1-3.2,1.3-3.2,3v3h-2c-3.9,0-7-3.1-7-7V27z
	 M24,32h2v8h-2V32z M32,50.9c2,1.3,4.4,2.1,7,2.1h2v6c0,1.7,1.3,3,3,3s3-1.3,3-3v-6h24v6c0,1.7,1.3,3,3,3s3-1.3,3-3v-6h2
	c0.7,0,1.3-0.1,2-0.2V79c0,2.8-1.7,5.2-4.1,6.4C76.6,84,75.4,83,74,83H44c-1.7,0-3,1.3-3,3h-2c-3.9,0-7-3.1-7-7V54V50.9z M26,57.8
	v22.4c-1.8-1-3-3-3-5.2V63C23,60.8,24.2,58.8,26,57.8z M29,97h10h2v10H29c-0.7,0-1.4-0.2-2-0.4V99C27,97.9,27.9,97,29,97z M47,97h24
	v10H47V97z M77,97h2h10c1.1,0,2,0.9,2,2v7.6c-0.6,0.3-1.3,0.4-2,0.4H77V97z"/>
</svg>
