<?xml version="1.0" encoding="utf-8"?>
<!-- Generator: Adobe Illustrator 21.0.2, SVG Export Plug-In . SVG Version: 6.00 Build 0)  -->
<svg version="1.1"
	 id="Calque_1" xmlns:cc="http://creativecommons.org/ns#" xmlns:dc="http://purl.org/dc/elements/1.1/" xmlns:inkscape="http://www.inkscape.org/namespaces/inkscape" xmlns:rdf="http://www.w3.org/1999/02/22-rdf-syntax-ns#" xmlns:sodipodi="http://sodipodi.sourceforge.net/DTD/sodipodi-0.dtd" xmlns:svg="http://www.w3.org/2000/svg"
	 xmlns="http://www.w3.org/2000/svg" xmlns:xlink="http://www.w3.org/1999/xlink" x="0px" y="0px" viewBox="0 0 128 160"
	 style="enable-background:new 0 0 128 160;" xml:space="preserve">
<path d="M23.2,13.1c-2.4,0-4.8,1-6.7,3l-1.2,1.2c-1.9,1.9-2.9,4.2-2.8,6.6c0,2.9,1.6,5.9,4.5,8.7l12.8,12c2.8,2.7,5.7,4.1,8.5,4.1
	c1.5,0,2.9-0.4,4.2-1.1l2.7,2.7c-16.6,17.3-26.5,38-26.7,55.9c0,0.8,0.3,1.6,0.9,2.2s1.3,0.9,2.1,0.9c18-0.2,38.9-10,56.3-26.3
	l2.7,2.7c-2.2,3.8-1.2,8.4,2.9,12.7l12,12.9c2.8,2.9,5.9,4.5,8.8,4.5c2.4,0,4.6-1,6.5-2.8l1.2-1.2c2-2,3-4.3,3-6.8
	c0-3.3-1.6-6.4-4.6-9.1L97.2,84.3c-2.8-2.6-5.7-3.9-8.4-3.9c-1.4,0-2.7,0.3-3.9,1l-2.7-2.7c16.9-17.4,27-38.4,27.2-56.5
	c0-0.8-0.3-1.6-0.9-2.2s-1.4-0.9-2.2-0.9C88.1,19.3,67,29.3,49.5,45.9l-2.7-2.7c1.4-2.7,2-7-2.9-12.3L32.2,17.7
	C29.4,14.7,26.3,13.1,23.2,13.1z M23.2,19.2c1.3,0,3,1,4.5,2.7L39.4,35c3.7,4,2.1,5.6,1.2,6.5c-1,1-1.8,1.2-2.3,1.2
	c-1.2,0-2.8-0.9-4.4-2.4l-12.8-12c-1.7-1.6-2.6-3.2-2.6-4.4c0-0.3,0-1.2,1.1-2.3l1.2-1.2C21.6,19.6,22.4,19.2,23.2,19.2z M103,25.1
	c-1.6,2-7,20.9-23.9,40.9c0.1-0.7,0.2-1.4,0.2-2.2c0-4-1.6-7.8-4.4-10.6s-6.6-4.4-10.7-4.4c-3.2,0-6.3,1-9,2.8L53.6,50
	C68.1,36.3,86.2,26.4,103,25.1z M49.4,54.4l1.7,1.7c-1.6,2.5-2.5,5.4-2.5,8.4c0,4,1.6,7.8,4.4,10.6s6.6,4.4,10.7,4.4
	c0.9,0,1.7-0.1,2.6-0.2c-5.7,4.8-12.1,9.5-19.5,13.9c0.2-0.4,0.3-0.9,0.2-1.4l-0.3-4.1l4.2,0.3h0.2c1.5,0,2.9-1.2,3-2.8
	c0.1-1.7-1.1-3.1-2.8-3.2l-5.1-0.4l-0.4-5.1c-0.1-1.7-1.6-2.9-3.2-2.7c-1.7,0.1-2.9,1.6-2.7,3.2l0.3,4.1L36,80.8
	c-1.6-0.1-3.1,1.1-3.2,2.8s1.1,3.1,2.8,3.2l5.1,0.4l0.4,5.1c0.1,1.4,1.2,2.5,2.6,2.7c-5,2.8-10.5,5.4-16.4,7.7
	c-0.9,0.1-1.7,0.2-2.6,0.3C26,86.4,35.7,68.7,49.4,54.4z M64.2,54.9c2.5,0,4.7,0.9,6.4,2.6s2.6,3.9,2.6,6.3c0.1,1.7-0.3,3.3-1.1,4.7
	L59.6,56.1C61,55.3,62.6,54.9,64.2,54.9z M55.6,60.5l12.1,12.1c-1.3,0.5-2.7,0.8-4,0.8c-2.5,0-4.7-0.9-6.4-2.6s-2.6-3.9-2.6-6.3
	C54.7,63.1,55,61.8,55.6,60.5z M88.8,86.3c1.2,0,2.7,0.8,4.4,2.4l13.1,11.6c1.7,1.6,2.7,3.2,2.7,4.5c0,0.9-0.4,1.6-1.2,2.5l-1.2,1.2
	c-0.8,0.8-1.5,1.1-2.3,1.1c-1.3,0-2.9-0.9-4.5-2.6l-12-12.9c-3.9-4.1-2.1-5.8-1.2-6.7C87.6,86.4,88.3,86.3,88.8,86.3z"/>
</svg>
