<?xml version="1.0" encoding="utf-8"?>
<!-- Generator: Adobe Illustrator 21.0.2, SVG Export Plug-In . SVG Version: 6.00 Build 0)  -->
<svg version="1.1"
	 id="Calque_1" xmlns:cc="http://creativecommons.org/ns#" xmlns:dc="http://purl.org/dc/elements/1.1/" xmlns:inkscape="http://www.inkscape.org/namespaces/inkscape" xmlns:rdf="http://www.w3.org/1999/02/22-rdf-syntax-ns#" xmlns:sodipodi="http://sodipodi.sourceforge.net/DTD/sodipodi-0.dtd" xmlns:svg="http://www.w3.org/2000/svg"
	 xmlns="http://www.w3.org/2000/svg" xmlns:xlink="http://www.w3.org/1999/xlink" x="0px" y="0px" viewBox="0 0 128 160"
	 style="enable-background:new 0 0 128 160;" xml:space="preserve">
<path d="M30,9.5c-7.2,0-13,5.8-13,13v34c0,7.2,5.8,13,13,13h14c1.7,0,3-1.3,3-3v-54c0-1.7-1.3-3-3-3H30z M76,12.5
	c-1,0-2,0.5-2.5,1.4c-2,3-11.7,18.3-11.7,25.2c0,2.3,0.5,4.1,1.5,5.5h-1c-1.7,0-3,1.3-3,3v21H49c-1.7,0-3,1.3-3,3v29
	c0,7.1,5.8,12.9,13,12.9h34c7.2,0,13-5.8,13-13v-29c0-1.7-1.3-3-3-3H92.8v-21c0-1.7-1.3-3-3-3h-1c0.9-1.4,1.5-3.2,1.5-5.5
	c0-6.9-9.7-22.2-11.7-25.2C78,13,77,12.5,76,12.5z M30,15.5h11v41H30c-2.7,0-5.2-1.1-7-2.9V22.5C23,18.6,26.1,15.5,30,15.5z
	 M76,31.4c2.3,4.3,3.9,7.9,4,9.4c0,2.2-1.8,4.1-4,4.1s-4-1.9-4-4.2C72.1,39.2,73.7,35.6,76,31.4z M65.2,50.5h21.6v15H65.2V50.5z
	 M71.2,56.6c-0.8,0-1.5,0.3-2.1,0.8c-0.6,0.6-0.9,1.3-0.9,2.1s0.3,1.6,0.9,2.1c0.6,0.6,1.3,0.9,2.1,0.9s1.6-0.3,2.1-0.9
	c0.6-0.6,0.9-1.3,0.9-2.1s-0.3-1.6-0.9-2.1C72.8,56.9,72,56.6,71.2,56.6z M81.2,56.6c-0.8,0-1.5,0.3-2.1,0.8
	c-0.6,0.6-0.9,1.3-0.9,2.1s0.3,1.6,0.9,2.1c0.6,0.6,1.3,0.9,2.1,0.9s1.6-0.3,2.1-0.9c0.6-0.6,0.9-1.3,0.9-2.1s-0.3-1.6-0.9-2.1
	C82.8,56.9,82,56.6,81.2,56.6z M52,74.5h10.2h27.6H93v26c0,2.7-1.1,5.2-2.9,7H59c-3.9,0-7-3.1-7-7V74.5z"/>
</svg>
