<?xml version="1.0" encoding="utf-8"?>
<!-- Generator: Adobe Illustrator 21.0.2, SVG Export Plug-In . SVG Version: 6.00 Build 0)  -->
<svg version="1.1"
	 id="Calque_1" xmlns:cc="http://creativecommons.org/ns#" xmlns:dc="http://purl.org/dc/elements/1.1/" xmlns:inkscape="http://www.inkscape.org/namespaces/inkscape" xmlns:rdf="http://www.w3.org/1999/02/22-rdf-syntax-ns#" xmlns:sodipodi="http://sodipodi.sourceforge.net/DTD/sodipodi-0.dtd" xmlns:svg="http://www.w3.org/2000/svg"
	 xmlns="http://www.w3.org/2000/svg" xmlns:xlink="http://www.w3.org/1999/xlink" x="0px" y="0px" viewBox="0 0 128 160"
	 style="enable-background:new 0 0 128 160;" xml:space="preserve">
<path d="M63.7,15.9c-14,0-25.5,11.3-25.8,25.4c-12.1,5.1-20,16.9-20,30.2c0,18,14.6,32.7,32.6,32.7h7v15.7h-17c-1.7,0-3,1.3-3,3
	s1.3,3,3,3h57c1.7,0,3-1.3,3-3s-1.3-3-3-3h-34v-15.7h11.6c15.5,0,28-12.6,28-28.1c0-10.6-6.1-20.3-15.3-25.1
	c1.1-2.9,1.7-6.1,1.7-9.2C89.5,27.5,77.9,15.9,63.7,15.9z M55.4,23.8C66.3,25.5,74.6,35,74.6,46.4c0,3.9-1,7.5-2.7,10.7
	c9.5,3.6,16.3,12.8,16.3,23.6c0,6.3-2.3,12-6,16.4c-2.2,0.8-4.7,1.2-7.2,1.2H63.5v-6.5l16.4-8.2c1.5-0.7,2.1-2.5,1.3-4
	c-0.7-1.5-2.5-2.1-4-1.3L63.5,85V51.6c0-1.7-1.3-3-3-3s-3,1.3-3,3v15.1l-13.9-6.6c-1.5-0.7-3.3-0.1-4,1.4s-0.1,3.3,1.4,4l16.5,7.9
	v24.8h-7c-14.7,0-26.6-12-26.6-26.7c0-11.5,7.3-21.6,18.1-25.3c1.3-0.4,2.1-1.7,2-3c0-0.5-0.1-0.9-0.1-1.4
	C43.9,33.8,48.6,26.9,55.4,23.8z M110.5,119.9c-0.8,0-1.5,0.3-2.1,0.9c-0.6,0.6-0.9,1.3-0.9,2.1s0.3,1.6,0.9,2.1s1.3,0.9,2.1,0.9
	s1.6-0.3,2.1-0.9c0.6-0.6,0.9-1.3,0.9-2.1s-0.3-1.6-0.9-2.1C112,120.2,111.3,119.9,110.5,119.9z"/>
</svg>
